<mxfile host="65bd71144e">
    <diagram id="2e6PJgSVRDQcBiK9h0tY" name="第 1 页">
        <mxGraphModel dx="1270" dy="-257" grid="1" gridSize="10" guides="1" tooltips="1" connect="1" arrows="1" fold="1" page="1" pageScale="1" pageWidth="850" pageHeight="1100" math="0" shadow="0">
            <root>
                <mxCell id="0"/>
                <mxCell id="1" parent="0"/>
                <mxCell id="2" style="edgeStyle=none;html=1;" parent="1" source="4" edge="1">
                    <mxGeometry relative="1" as="geometry">
                        <mxPoint x="180" y="1400" as="targetPoint"/>
                    </mxGeometry>
                </mxCell>
                <mxCell id="3" style="edgeStyle=none;html=1;" parent="1" source="4" edge="1">
                    <mxGeometry relative="1" as="geometry">
                        <mxPoint x="260" y="1400" as="targetPoint"/>
                    </mxGeometry>
                </mxCell>
                <mxCell id="4" value="" style="ellipse;whiteSpace=wrap;html=1;" parent="1" vertex="1">
                    <mxGeometry x="205" y="1340" width="30" height="30" as="geometry"/>
                </mxCell>
                <mxCell id="5" style="edgeStyle=none;html=1;" parent="1" source="7" edge="1">
                    <mxGeometry relative="1" as="geometry">
                        <mxPoint x="150" y="1460" as="targetPoint"/>
                    </mxGeometry>
                </mxCell>
                <mxCell id="6" style="edgeStyle=none;html=1;" parent="1" source="7" edge="1">
                    <mxGeometry relative="1" as="geometry">
                        <mxPoint x="190" y="1460" as="targetPoint"/>
                    </mxGeometry>
                </mxCell>
                <mxCell id="7" value="" style="ellipse;whiteSpace=wrap;html=1;" parent="1" vertex="1">
                    <mxGeometry x="160" y="1400" width="30" height="30" as="geometry"/>
                </mxCell>
                <mxCell id="8" value="" style="ellipse;whiteSpace=wrap;html=1;" parent="1" vertex="1">
                    <mxGeometry x="130" y="1460" width="30" height="30" as="geometry"/>
                </mxCell>
                <mxCell id="9" value="" style="ellipse;whiteSpace=wrap;html=1;" parent="1" vertex="1">
                    <mxGeometry x="175" y="1460" width="30" height="30" as="geometry"/>
                </mxCell>
                <mxCell id="10" style="edgeStyle=none;html=1;" parent="1" source="12" edge="1">
                    <mxGeometry relative="1" as="geometry">
                        <mxPoint x="290" y="1460" as="targetPoint"/>
                    </mxGeometry>
                </mxCell>
                <mxCell id="11" style="edgeStyle=none;html=1;" parent="1" source="12" edge="1">
                    <mxGeometry relative="1" as="geometry">
                        <mxPoint x="240" y="1460" as="targetPoint"/>
                    </mxGeometry>
                </mxCell>
                <mxCell id="12" value="" style="ellipse;whiteSpace=wrap;html=1;" parent="1" vertex="1">
                    <mxGeometry x="247.5" y="1400" width="30" height="30" as="geometry"/>
                </mxCell>
                <mxCell id="13" value="" style="ellipse;whiteSpace=wrap;html=1;" parent="1" vertex="1">
                    <mxGeometry x="277.5" y="1460" width="30" height="30" as="geometry"/>
                </mxCell>
                <mxCell id="14" value="" style="ellipse;whiteSpace=wrap;html=1;" parent="1" vertex="1">
                    <mxGeometry x="225" y="1460" width="30" height="30" as="geometry"/>
                </mxCell>
                <mxCell id="15" value="满二叉树" style="text;strokeColor=none;align=center;fillColor=none;html=1;verticalAlign=middle;whiteSpace=wrap;rounded=0;" parent="1" vertex="1">
                    <mxGeometry x="187.5" y="1310" width="60" height="30" as="geometry"/>
                </mxCell>
                <mxCell id="16" value="&lt;div style=&quot;color: rgb(171, 178, 191); background-color: rgb(40, 44, 52); font-family: Consolas, &amp;quot;Courier New&amp;quot;, monospace; font-size: 14px; line-height: 19px;&quot;&gt;左右节点都是完整的, 没有缺胳膊少腿&lt;/div&gt;" style="text;strokeColor=none;align=center;fillColor=none;html=1;verticalAlign=middle;whiteSpace=wrap;rounded=0;" parent="1" vertex="1">
                    <mxGeometry x="145" y="1510" width="150" height="30" as="geometry"/>
                </mxCell>
                <mxCell id="17" style="edgeStyle=none;html=1;" parent="1" source="19" edge="1">
                    <mxGeometry relative="1" as="geometry">
                        <mxPoint x="590" y="1390" as="targetPoint"/>
                    </mxGeometry>
                </mxCell>
                <mxCell id="18" style="edgeStyle=none;html=1;" parent="1" source="19" edge="1">
                    <mxGeometry relative="1" as="geometry">
                        <mxPoint x="670" y="1390" as="targetPoint"/>
                    </mxGeometry>
                </mxCell>
                <mxCell id="19" value="" style="ellipse;whiteSpace=wrap;html=1;" parent="1" vertex="1">
                    <mxGeometry x="615" y="1330" width="30" height="30" as="geometry"/>
                </mxCell>
                <mxCell id="20" style="edgeStyle=none;html=1;" parent="1" source="22" edge="1">
                    <mxGeometry relative="1" as="geometry">
                        <mxPoint x="560" y="1450" as="targetPoint"/>
                    </mxGeometry>
                </mxCell>
                <mxCell id="21" style="edgeStyle=none;html=1;" parent="1" source="22" edge="1">
                    <mxGeometry relative="1" as="geometry">
                        <mxPoint x="600" y="1450" as="targetPoint"/>
                    </mxGeometry>
                </mxCell>
                <mxCell id="22" value="" style="ellipse;whiteSpace=wrap;html=1;" parent="1" vertex="1">
                    <mxGeometry x="570" y="1390" width="30" height="30" as="geometry"/>
                </mxCell>
                <mxCell id="23" style="edgeStyle=none;html=1;" parent="1" source="24" edge="1">
                    <mxGeometry relative="1" as="geometry">
                        <mxPoint x="520" y="1510" as="targetPoint"/>
                    </mxGeometry>
                </mxCell>
                <mxCell id="24" value="" style="ellipse;whiteSpace=wrap;html=1;" parent="1" vertex="1">
                    <mxGeometry x="540" y="1450" width="30" height="30" as="geometry"/>
                </mxCell>
                <mxCell id="25" value="" style="ellipse;whiteSpace=wrap;html=1;" parent="1" vertex="1">
                    <mxGeometry x="585" y="1450" width="30" height="30" as="geometry"/>
                </mxCell>
                <mxCell id="26" style="edgeStyle=none;html=1;" parent="1" source="28" edge="1">
                    <mxGeometry relative="1" as="geometry">
                        <mxPoint x="700" y="1450" as="targetPoint"/>
                    </mxGeometry>
                </mxCell>
                <mxCell id="27" style="edgeStyle=none;html=1;" parent="1" source="28" edge="1">
                    <mxGeometry relative="1" as="geometry">
                        <mxPoint x="650" y="1450" as="targetPoint"/>
                    </mxGeometry>
                </mxCell>
                <mxCell id="28" value="" style="ellipse;whiteSpace=wrap;html=1;" parent="1" vertex="1">
                    <mxGeometry x="657.5" y="1390" width="30" height="30" as="geometry"/>
                </mxCell>
                <mxCell id="29" value="" style="ellipse;whiteSpace=wrap;html=1;" parent="1" vertex="1">
                    <mxGeometry x="687.5" y="1450" width="30" height="30" as="geometry"/>
                </mxCell>
                <mxCell id="30" value="" style="ellipse;whiteSpace=wrap;html=1;" parent="1" vertex="1">
                    <mxGeometry x="635" y="1450" width="30" height="30" as="geometry"/>
                </mxCell>
                <mxCell id="31" value="" style="ellipse;whiteSpace=wrap;html=1;" parent="1" vertex="1">
                    <mxGeometry x="502.5" y="1500" width="30" height="30" as="geometry"/>
                </mxCell>
                <mxCell id="32" value="完全二叉树" style="text;strokeColor=none;align=center;fillColor=none;html=1;verticalAlign=middle;whiteSpace=wrap;rounded=0;" parent="1" vertex="1">
                    <mxGeometry x="590" y="1300" width="70" height="30" as="geometry"/>
                </mxCell>
                <mxCell id="33" value="&lt;div style=&quot;color: rgb(171, 178, 191); background-color: rgb(40, 44, 52); font-family: Consolas, &amp;quot;Courier New&amp;quot;, monospace; font-size: 14px; line-height: 19px;&quot;&gt;最底层从左往右的节点一定要是连续的才叫&lt;span style=&quot;color: #e5c07b;&quot;&gt;`&lt;/span&gt;&lt;span style=&quot;color: #98c379;&quot;&gt;完全二叉树&lt;/span&gt;&lt;span style=&quot;color: #e5c07b;&quot;&gt;`&lt;/span&gt;&lt;/div&gt;" style="text;strokeColor=none;align=center;fillColor=none;html=1;verticalAlign=middle;whiteSpace=wrap;rounded=0;" parent="1" vertex="1">
                    <mxGeometry x="520" y="1540" width="200" height="30" as="geometry"/>
                </mxCell>
                <mxCell id="34" style="edgeStyle=none;html=1;" parent="1" source="36" edge="1">
                    <mxGeometry relative="1" as="geometry">
                        <mxPoint x="172.5" y="1660" as="targetPoint"/>
                    </mxGeometry>
                </mxCell>
                <mxCell id="35" style="edgeStyle=none;html=1;" parent="1" source="36" edge="1">
                    <mxGeometry relative="1" as="geometry">
                        <mxPoint x="252.5" y="1660" as="targetPoint"/>
                    </mxGeometry>
                </mxCell>
                <mxCell id="36" value="" style="ellipse;whiteSpace=wrap;html=1;" parent="1" vertex="1">
                    <mxGeometry x="197.5" y="1600" width="30" height="30" as="geometry"/>
                </mxCell>
                <mxCell id="37" style="edgeStyle=none;html=1;" parent="1" source="39" edge="1">
                    <mxGeometry relative="1" as="geometry">
                        <mxPoint x="142.5" y="1720" as="targetPoint"/>
                    </mxGeometry>
                </mxCell>
                <mxCell id="38" style="edgeStyle=none;html=1;" parent="1" source="39" edge="1">
                    <mxGeometry relative="1" as="geometry">
                        <mxPoint x="182.5" y="1720" as="targetPoint"/>
                    </mxGeometry>
                </mxCell>
                <mxCell id="39" value="" style="ellipse;whiteSpace=wrap;html=1;" parent="1" vertex="1">
                    <mxGeometry x="152.5" y="1660" width="30" height="30" as="geometry"/>
                </mxCell>
                <mxCell id="40" style="edgeStyle=none;html=1;" parent="1" source="41" edge="1">
                    <mxGeometry relative="1" as="geometry">
                        <mxPoint x="102.5" y="1780" as="targetPoint"/>
                    </mxGeometry>
                </mxCell>
                <mxCell id="41" value="" style="ellipse;whiteSpace=wrap;html=1;" parent="1" vertex="1">
                    <mxGeometry x="122.5" y="1720" width="30" height="30" as="geometry"/>
                </mxCell>
                <mxCell id="42" value="" style="ellipse;whiteSpace=wrap;html=1;" parent="1" vertex="1">
                    <mxGeometry x="167.5" y="1720" width="30" height="30" as="geometry"/>
                </mxCell>
                <mxCell id="43" style="edgeStyle=none;html=1;" parent="1" source="45" edge="1">
                    <mxGeometry relative="1" as="geometry">
                        <mxPoint x="282.5" y="1720" as="targetPoint"/>
                    </mxGeometry>
                </mxCell>
                <mxCell id="44" style="edgeStyle=none;html=1;" parent="1" source="45" edge="1">
                    <mxGeometry relative="1" as="geometry">
                        <mxPoint x="232.5" y="1720" as="targetPoint"/>
                    </mxGeometry>
                </mxCell>
                <mxCell id="45" value="" style="ellipse;whiteSpace=wrap;html=1;" parent="1" vertex="1">
                    <mxGeometry x="240" y="1660" width="30" height="30" as="geometry"/>
                </mxCell>
                <mxCell id="46" value="" style="ellipse;whiteSpace=wrap;html=1;" parent="1" vertex="1">
                    <mxGeometry x="270" y="1720" width="30" height="30" as="geometry"/>
                </mxCell>
                <mxCell id="47" value="" style="ellipse;whiteSpace=wrap;html=1;" parent="1" vertex="1">
                    <mxGeometry x="217.5" y="1720" width="30" height="30" as="geometry"/>
                </mxCell>
                <mxCell id="48" value="" style="ellipse;whiteSpace=wrap;html=1;" parent="1" vertex="1">
                    <mxGeometry x="85" y="1770" width="30" height="30" as="geometry"/>
                </mxCell>
                <mxCell id="49" style="edgeStyle=none;html=1;" parent="1" edge="1">
                    <mxGeometry relative="1" as="geometry">
                        <mxPoint x="201.71000000000004" y="1783.1599999999999" as="targetPoint"/>
                        <mxPoint x="227.50089079723148" y="1750.0002832607024" as="sourcePoint"/>
                    </mxGeometry>
                </mxCell>
                <mxCell id="50" value="" style="ellipse;whiteSpace=wrap;html=1;" parent="1" vertex="1">
                    <mxGeometry x="184.20999999999998" y="1773.16" width="30" height="30" as="geometry"/>
                </mxCell>
                <mxCell id="51" value="这不是完全二叉数, 因为最底层不连续" style="text;strokeColor=none;align=center;fillColor=none;html=1;verticalAlign=middle;whiteSpace=wrap;rounded=0;" parent="1" vertex="1">
                    <mxGeometry x="120" y="1820" width="130" height="30" as="geometry"/>
                </mxCell>
                <mxCell id="52" style="edgeStyle=none;html=1;" parent="1" source="54" edge="1">
                    <mxGeometry relative="1" as="geometry">
                        <mxPoint x="582" y="1730" as="targetPoint"/>
                    </mxGeometry>
                </mxCell>
                <mxCell id="53" style="edgeStyle=none;html=1;" parent="1" source="54" edge="1">
                    <mxGeometry relative="1" as="geometry">
                        <mxPoint x="662" y="1730" as="targetPoint"/>
                    </mxGeometry>
                </mxCell>
                <mxCell id="54" value="6" style="ellipse;whiteSpace=wrap;html=1;" parent="1" vertex="1">
                    <mxGeometry x="607" y="1670" width="30" height="30" as="geometry"/>
                </mxCell>
                <mxCell id="55" style="edgeStyle=none;html=1;" parent="1" source="57" edge="1">
                    <mxGeometry relative="1" as="geometry">
                        <mxPoint x="552" y="1790" as="targetPoint"/>
                    </mxGeometry>
                </mxCell>
                <mxCell id="56" style="edgeStyle=none;html=1;" parent="1" source="57" edge="1">
                    <mxGeometry relative="1" as="geometry">
                        <mxPoint x="592" y="1790" as="targetPoint"/>
                    </mxGeometry>
                </mxCell>
                <mxCell id="57" value="3" style="ellipse;whiteSpace=wrap;html=1;" parent="1" vertex="1">
                    <mxGeometry x="562" y="1730" width="30" height="30" as="geometry"/>
                </mxCell>
                <mxCell id="58" value="2" style="ellipse;whiteSpace=wrap;html=1;" parent="1" vertex="1">
                    <mxGeometry x="532" y="1790" width="30" height="30" as="geometry"/>
                </mxCell>
                <mxCell id="59" value="4" style="ellipse;whiteSpace=wrap;html=1;" parent="1" vertex="1">
                    <mxGeometry x="577" y="1790" width="30" height="30" as="geometry"/>
                </mxCell>
                <mxCell id="60" style="edgeStyle=none;html=1;" parent="1" source="62" edge="1">
                    <mxGeometry relative="1" as="geometry">
                        <mxPoint x="692" y="1790" as="targetPoint"/>
                    </mxGeometry>
                </mxCell>
                <mxCell id="61" style="edgeStyle=none;html=1;" parent="1" source="62" edge="1">
                    <mxGeometry relative="1" as="geometry">
                        <mxPoint x="642" y="1790" as="targetPoint"/>
                    </mxGeometry>
                </mxCell>
                <mxCell id="62" value="9" style="ellipse;whiteSpace=wrap;html=1;" parent="1" vertex="1">
                    <mxGeometry x="649.5" y="1730" width="30" height="30" as="geometry"/>
                </mxCell>
                <mxCell id="63" value="10" style="ellipse;whiteSpace=wrap;html=1;" parent="1" vertex="1">
                    <mxGeometry x="679.5" y="1790" width="30" height="30" as="geometry"/>
                </mxCell>
                <mxCell id="64" value="8" style="ellipse;whiteSpace=wrap;html=1;" parent="1" vertex="1">
                    <mxGeometry x="627" y="1790" width="30" height="30" as="geometry"/>
                </mxCell>
                <mxCell id="65" value="二叉搜索树" style="text;strokeColor=none;align=center;fillColor=none;html=1;verticalAlign=middle;whiteSpace=wrap;rounded=0;" parent="1" vertex="1">
                    <mxGeometry x="580" y="1635" width="80" height="30" as="geometry"/>
                </mxCell>
                <mxCell id="67" value="&lt;div style=&quot;color: rgb(171, 178, 191); background-color: rgb(40, 44, 52); font-family: Consolas, &amp;quot;Courier New&amp;quot;, monospace; font-size: 14px; line-height: 19px;&quot;&gt;(结构)左边的所以子节点都小于6这个节点; 右边的子节点都大于6这个节点&lt;/div&gt;" style="text;strokeColor=none;align=center;fillColor=none;html=1;verticalAlign=middle;whiteSpace=wrap;rounded=0;" parent="1" vertex="1">
                    <mxGeometry x="525" y="1870" width="175" height="60" as="geometry"/>
                </mxCell>
                <mxCell id="69" value="搜索时间复杂度:logn" style="text;strokeColor=none;align=center;fillColor=none;html=1;verticalAlign=middle;whiteSpace=wrap;rounded=0;" parent="1" vertex="1">
                    <mxGeometry x="750" y="1670" width="120" height="30" as="geometry"/>
                </mxCell>
                <mxCell id="70" value="例如:寻找元素4, 6 &amp;gt; 4, 找左节点; 3 &amp;lt; 4, 找右节点" style="text;strokeColor=none;align=center;fillColor=none;html=1;verticalAlign=middle;whiteSpace=wrap;rounded=0;" parent="1" vertex="1">
                    <mxGeometry x="760" y="1730" width="170" height="70" as="geometry"/>
                </mxCell>
                <mxCell id="86" style="edgeStyle=none;html=1;" parent="1" source="88" edge="1">
                    <mxGeometry relative="1" as="geometry">
                        <mxPoint x="135" y="1970" as="targetPoint"/>
                    </mxGeometry>
                </mxCell>
                <mxCell id="88" value="6" style="ellipse;whiteSpace=wrap;html=1;" parent="1" vertex="1">
                    <mxGeometry x="160" y="1910" width="30" height="30" as="geometry"/>
                </mxCell>
                <mxCell id="89" style="edgeStyle=none;html=1;" parent="1" source="91" edge="1">
                    <mxGeometry relative="1" as="geometry">
                        <mxPoint x="105" y="2030" as="targetPoint"/>
                    </mxGeometry>
                </mxCell>
                <mxCell id="90" style="edgeStyle=none;html=1;" parent="1" source="91" edge="1">
                    <mxGeometry relative="1" as="geometry">
                        <mxPoint x="145" y="2030" as="targetPoint"/>
                    </mxGeometry>
                </mxCell>
                <mxCell id="91" value="3" style="ellipse;whiteSpace=wrap;html=1;" parent="1" vertex="1">
                    <mxGeometry x="115" y="1970" width="30" height="30" as="geometry"/>
                </mxCell>
                <mxCell id="92" value="2" style="ellipse;whiteSpace=wrap;html=1;" parent="1" vertex="1">
                    <mxGeometry x="85" y="2030" width="30" height="30" as="geometry"/>
                </mxCell>
                <mxCell id="93" value="4" style="ellipse;whiteSpace=wrap;html=1;" parent="1" vertex="1">
                    <mxGeometry x="130" y="2030" width="30" height="30" as="geometry"/>
                </mxCell>
                <mxCell id="99" value="这也是二叉搜索树, 只有符合一定的结构就可以是二叉搜索树" style="text;strokeColor=none;align=center;fillColor=none;html=1;verticalAlign=middle;whiteSpace=wrap;rounded=0;" parent="1" vertex="1">
                    <mxGeometry x="190" y="1960" width="120" height="60" as="geometry"/>
                </mxCell>
                <mxCell id="115" value="&lt;div style=&quot;color: rgb(171, 178, 191); background-color: rgb(40, 44, 52); font-family: Consolas, &amp;quot;Courier New&amp;quot;, monospace; font-size: 14px; line-height: 19px;&quot;&gt;左子树高度减去右子树高度小于或等于1&lt;/div&gt;" style="text;strokeColor=none;align=center;fillColor=none;html=1;verticalAlign=middle;whiteSpace=wrap;rounded=0;" parent="1" vertex="1">
                    <mxGeometry x="530" y="2220" width="220" height="30" as="geometry"/>
                </mxCell>
                <mxCell id="116" value="左子树:3, 右子树:2&lt;br&gt;符合平衡二叉搜索树" style="text;strokeColor=none;align=center;fillColor=none;html=1;verticalAlign=middle;whiteSpace=wrap;rounded=0;" parent="1" vertex="1">
                    <mxGeometry x="730" y="2080" width="110" height="30" as="geometry"/>
                </mxCell>
                <mxCell id="117" value="平衡二叉搜索树" style="text;strokeColor=none;align=center;fillColor=none;html=1;verticalAlign=middle;whiteSpace=wrap;rounded=0;" parent="1" vertex="1">
                    <mxGeometry x="560" y="1990" width="100" height="30" as="geometry"/>
                </mxCell>
                <mxCell id="131" style="edgeStyle=none;html=1;" parent="1" source="133" edge="1">
                    <mxGeometry relative="1" as="geometry">
                        <mxPoint x="570" y="2080" as="targetPoint"/>
                    </mxGeometry>
                </mxCell>
                <mxCell id="132" style="edgeStyle=none;html=1;" parent="1" source="133" edge="1">
                    <mxGeometry relative="1" as="geometry">
                        <mxPoint x="650" y="2080" as="targetPoint"/>
                    </mxGeometry>
                </mxCell>
                <mxCell id="133" value="6" style="ellipse;whiteSpace=wrap;html=1;" parent="1" vertex="1">
                    <mxGeometry x="595" y="2020" width="30" height="30" as="geometry"/>
                </mxCell>
                <mxCell id="134" style="edgeStyle=none;html=1;" parent="1" source="136" edge="1">
                    <mxGeometry relative="1" as="geometry">
                        <mxPoint x="540" y="2140" as="targetPoint"/>
                    </mxGeometry>
                </mxCell>
                <mxCell id="135" style="edgeStyle=none;html=1;" parent="1" source="136" edge="1">
                    <mxGeometry relative="1" as="geometry">
                        <mxPoint x="580" y="2140" as="targetPoint"/>
                    </mxGeometry>
                </mxCell>
                <mxCell id="136" value="3" style="ellipse;whiteSpace=wrap;html=1;" parent="1" vertex="1">
                    <mxGeometry x="550" y="2080" width="30" height="30" as="geometry"/>
                </mxCell>
                <mxCell id="144" style="edgeStyle=none;html=1;" parent="1" source="137" edge="1">
                    <mxGeometry relative="1" as="geometry">
                        <mxPoint x="500" y="2190" as="targetPoint"/>
                    </mxGeometry>
                </mxCell>
                <mxCell id="137" value="2" style="ellipse;whiteSpace=wrap;html=1;" parent="1" vertex="1">
                    <mxGeometry x="520" y="2140" width="30" height="30" as="geometry"/>
                </mxCell>
                <mxCell id="138" value="4" style="ellipse;whiteSpace=wrap;html=1;" parent="1" vertex="1">
                    <mxGeometry x="565" y="2140" width="30" height="30" as="geometry"/>
                </mxCell>
                <mxCell id="139" style="edgeStyle=none;html=1;" parent="1" source="141" edge="1">
                    <mxGeometry relative="1" as="geometry">
                        <mxPoint x="680" y="2140" as="targetPoint"/>
                    </mxGeometry>
                </mxCell>
                <mxCell id="140" style="edgeStyle=none;html=1;" parent="1" source="141" edge="1">
                    <mxGeometry relative="1" as="geometry">
                        <mxPoint x="630" y="2140" as="targetPoint"/>
                    </mxGeometry>
                </mxCell>
                <mxCell id="141" value="9" style="ellipse;whiteSpace=wrap;html=1;" parent="1" vertex="1">
                    <mxGeometry x="637.5" y="2080" width="30" height="30" as="geometry"/>
                </mxCell>
                <mxCell id="142" value="10" style="ellipse;whiteSpace=wrap;html=1;" parent="1" vertex="1">
                    <mxGeometry x="667.5" y="2140" width="30" height="30" as="geometry"/>
                </mxCell>
                <mxCell id="143" value="8" style="ellipse;whiteSpace=wrap;html=1;" parent="1" vertex="1">
                    <mxGeometry x="615" y="2140" width="30" height="30" as="geometry"/>
                </mxCell>
                <mxCell id="145" value="0" style="ellipse;whiteSpace=wrap;html=1;" parent="1" vertex="1">
                    <mxGeometry x="472.5" y="2190" width="30" height="30" as="geometry"/>
                </mxCell>
                <mxCell id="146" value="个数为: 2k - 1&lt;br&gt;k为树的长度" style="text;strokeColor=none;align=center;fillColor=none;html=1;verticalAlign=middle;whiteSpace=wrap;rounded=0;" parent="1" vertex="1">
                    <mxGeometry x="310" y="1360" width="90" height="30" as="geometry"/>
                </mxCell>
                <mxCell id="147" value="存储方式&lt;br&gt;1. 线性存储(数组)&lt;br&gt;2. 链式存储(指针)" style="text;strokeColor=none;align=center;fillColor=none;html=1;verticalAlign=middle;whiteSpace=wrap;rounded=0;" parent="1" vertex="1">
                    <mxGeometry x="85" y="2280" width="110" height="50" as="geometry"/>
                </mxCell>
                <mxCell id="148" value="线性存储(了解)" style="text;strokeColor=none;align=center;fillColor=none;html=1;verticalAlign=middle;whiteSpace=wrap;rounded=0;" parent="1" vertex="1">
                    <mxGeometry x="104" y="2370" width="60" height="30" as="geometry"/>
                </mxCell>
                <mxCell id="149" style="edgeStyle=none;html=1;" parent="1" source="151" edge="1">
                    <mxGeometry relative="1" as="geometry">
                        <mxPoint x="90" y="2460" as="targetPoint"/>
                    </mxGeometry>
                </mxCell>
                <mxCell id="150" style="edgeStyle=none;html=1;" parent="1" source="151" edge="1">
                    <mxGeometry relative="1" as="geometry">
                        <mxPoint x="170" y="2460" as="targetPoint"/>
                    </mxGeometry>
                </mxCell>
                <mxCell id="151" value="a" style="ellipse;whiteSpace=wrap;html=1;" parent="1" vertex="1">
                    <mxGeometry x="115" y="2400" width="30" height="30" as="geometry"/>
                </mxCell>
                <mxCell id="152" style="edgeStyle=none;html=1;" parent="1" source="154" edge="1">
                    <mxGeometry relative="1" as="geometry">
                        <mxPoint x="60" y="2520" as="targetPoint"/>
                    </mxGeometry>
                </mxCell>
                <mxCell id="153" style="edgeStyle=none;html=1;" parent="1" source="154" edge="1">
                    <mxGeometry relative="1" as="geometry">
                        <mxPoint x="100" y="2520" as="targetPoint"/>
                    </mxGeometry>
                </mxCell>
                <mxCell id="154" value="b" style="ellipse;whiteSpace=wrap;html=1;" parent="1" vertex="1">
                    <mxGeometry x="70" y="2460" width="30" height="30" as="geometry"/>
                </mxCell>
                <mxCell id="155" value="d" style="ellipse;whiteSpace=wrap;html=1;" parent="1" vertex="1">
                    <mxGeometry x="40" y="2520" width="30" height="30" as="geometry"/>
                </mxCell>
                <mxCell id="156" value="e" style="ellipse;whiteSpace=wrap;html=1;" parent="1" vertex="1">
                    <mxGeometry x="85" y="2520" width="30" height="30" as="geometry"/>
                </mxCell>
                <mxCell id="157" style="edgeStyle=none;html=1;" parent="1" source="159" edge="1">
                    <mxGeometry relative="1" as="geometry">
                        <mxPoint x="200" y="2520" as="targetPoint"/>
                    </mxGeometry>
                </mxCell>
                <mxCell id="158" style="edgeStyle=none;html=1;" parent="1" source="159" edge="1">
                    <mxGeometry relative="1" as="geometry">
                        <mxPoint x="150" y="2520" as="targetPoint"/>
                    </mxGeometry>
                </mxCell>
                <mxCell id="159" value="c" style="ellipse;whiteSpace=wrap;html=1;" parent="1" vertex="1">
                    <mxGeometry x="157.5" y="2460" width="30" height="30" as="geometry"/>
                </mxCell>
                <mxCell id="160" value="g" style="ellipse;whiteSpace=wrap;html=1;" parent="1" vertex="1">
                    <mxGeometry x="187.5" y="2520" width="30" height="30" as="geometry"/>
                </mxCell>
                <mxCell id="161" value="f" style="ellipse;whiteSpace=wrap;html=1;" parent="1" vertex="1">
                    <mxGeometry x="135" y="2520" width="30" height="30" as="geometry"/>
                </mxCell>
                <mxCell id="162" value="&quot;abcdefg&quot;" style="text;strokeColor=none;align=center;fillColor=none;html=1;verticalAlign=middle;whiteSpace=wrap;rounded=0;" parent="1" vertex="1">
                    <mxGeometry x="184.20999999999998" y="2400" width="60" height="30" as="geometry"/>
                </mxCell>
                <mxCell id="163" value="如何找孩子?&lt;br&gt;左孩子:2 * i + 1&lt;br&gt;右孩子: 2 * i + 2&lt;br&gt;i为当前元素下标&lt;br&gt;例如:找b(下标为1)元素的两个儿子&lt;br&gt;2 * 1 + 1 = 3&lt;br&gt;2 * 1 + 2 = 4" style="text;strokeColor=none;align=center;fillColor=none;html=1;verticalAlign=middle;whiteSpace=wrap;rounded=0;" parent="1" vertex="1">
                    <mxGeometry x="64" y="2590" width="200" height="140" as="geometry"/>
                </mxCell>
                <mxCell id="164" value="0" style="text;strokeColor=none;align=center;fillColor=none;html=1;verticalAlign=middle;whiteSpace=wrap;rounded=0;" parent="1" vertex="1">
                    <mxGeometry x="145" y="2400" width="15" height="30" as="geometry"/>
                </mxCell>
                <mxCell id="165" value="1" style="text;strokeColor=none;align=center;fillColor=none;html=1;verticalAlign=middle;whiteSpace=wrap;rounded=0;" parent="1" vertex="1">
                    <mxGeometry x="50" y="2460" width="20" height="30" as="geometry"/>
                </mxCell>
                <mxCell id="166" value="2" style="text;strokeColor=none;align=center;fillColor=none;html=1;verticalAlign=middle;whiteSpace=wrap;rounded=0;" parent="1" vertex="1">
                    <mxGeometry x="192" y="2460" width="20" height="30" as="geometry"/>
                </mxCell>
                <mxCell id="167" value="3" style="text;strokeColor=none;align=center;fillColor=none;html=1;verticalAlign=middle;whiteSpace=wrap;rounded=0;" parent="1" vertex="1">
                    <mxGeometry x="44" y="2553" width="20" height="30" as="geometry"/>
                </mxCell>
                <mxCell id="168" value="4" style="text;strokeColor=none;align=center;fillColor=none;html=1;verticalAlign=middle;whiteSpace=wrap;rounded=0;" parent="1" vertex="1">
                    <mxGeometry x="89" y="2552" width="20" height="30" as="geometry"/>
                </mxCell>
                <mxCell id="169" value="5" style="text;strokeColor=none;align=center;fillColor=none;html=1;verticalAlign=middle;whiteSpace=wrap;rounded=0;" parent="1" vertex="1">
                    <mxGeometry x="134" y="2553" width="30" height="30" as="geometry"/>
                </mxCell>
                <mxCell id="170" value="6" style="text;strokeColor=none;align=center;fillColor=none;html=1;verticalAlign=middle;whiteSpace=wrap;rounded=0;" parent="1" vertex="1">
                    <mxGeometry x="194" y="2552" width="20" height="30" as="geometry"/>
                </mxCell>
                <mxCell id="171" value="链式存储&lt;br&gt;二叉树构造实际上就是链表&lt;br&gt;区别为一个节点两个指针, 一个指向左孩子, 一个指向右孩子" style="text;strokeColor=none;align=center;fillColor=none;html=1;verticalAlign=middle;whiteSpace=wrap;rounded=0;" parent="1" vertex="1">
                    <mxGeometry x="480" y="2370" width="150" height="50" as="geometry"/>
                </mxCell>
                <mxCell id="173" value="二叉数的深度优先搜素和广度优先搜素哦&lt;br&gt;1." style="text;strokeColor=none;align=center;fillColor=none;html=1;verticalAlign=middle;whiteSpace=wrap;rounded=0;" parent="1" vertex="1">
                    <mxGeometry x="240" y="2830" width="130" height="40" as="geometry"/>
                </mxCell>
                <mxCell id="174" style="edgeStyle=none;html=1;" parent="1" source="176" edge="1">
                    <mxGeometry relative="1" as="geometry">
                        <mxPoint x="584" y="2590" as="targetPoint"/>
                    </mxGeometry>
                </mxCell>
                <mxCell id="175" style="edgeStyle=none;html=1;" parent="1" source="176" edge="1">
                    <mxGeometry relative="1" as="geometry">
                        <mxPoint x="664" y="2590" as="targetPoint"/>
                    </mxGeometry>
                </mxCell>
                <mxCell id="176" value="6" style="ellipse;whiteSpace=wrap;html=1;" parent="1" vertex="1">
                    <mxGeometry x="609" y="2530" width="30" height="30" as="geometry"/>
                </mxCell>
                <mxCell id="177" style="edgeStyle=none;html=1;" parent="1" source="179" edge="1">
                    <mxGeometry relative="1" as="geometry">
                        <mxPoint x="554" y="2650" as="targetPoint"/>
                    </mxGeometry>
                </mxCell>
                <mxCell id="178" style="edgeStyle=none;html=1;" parent="1" source="179" edge="1">
                    <mxGeometry relative="1" as="geometry">
                        <mxPoint x="594" y="2650" as="targetPoint"/>
                    </mxGeometry>
                </mxCell>
                <mxCell id="179" value="3" style="ellipse;whiteSpace=wrap;html=1;" parent="1" vertex="1">
                    <mxGeometry x="564" y="2590" width="30" height="30" as="geometry"/>
                </mxCell>
                <mxCell id="180" value="2" style="ellipse;whiteSpace=wrap;html=1;" parent="1" vertex="1">
                    <mxGeometry x="534" y="2650" width="30" height="30" as="geometry"/>
                </mxCell>
                <mxCell id="181" value="4" style="ellipse;whiteSpace=wrap;html=1;" parent="1" vertex="1">
                    <mxGeometry x="579" y="2650" width="30" height="30" as="geometry"/>
                </mxCell>
                <mxCell id="184" value="9" style="ellipse;whiteSpace=wrap;html=1;" parent="1" vertex="1">
                    <mxGeometry x="651.5" y="2590" width="30" height="30" as="geometry"/>
                </mxCell>
                <mxCell id="185" value="中序:&amp;nbsp;[2, 3, 4, 6, 9]" style="text;strokeColor=none;align=center;fillColor=none;html=1;verticalAlign=middle;whiteSpace=wrap;rounded=0;" parent="1" vertex="1">
                    <mxGeometry x="550" y="2720" width="200" height="20" as="geometry"/>
                </mxCell>
                <mxCell id="186" value="前序: [6, 3, 2, 4, 9]" style="text;strokeColor=none;align=center;fillColor=none;html=1;verticalAlign=middle;whiteSpace=wrap;rounded=0;" parent="1" vertex="1">
                    <mxGeometry x="575" y="2690" width="150" height="30" as="geometry"/>
                </mxCell>
                <mxCell id="187" value="后序:[2, 4, 3, 9, 6]" style="text;strokeColor=none;align=center;fillColor=none;html=1;verticalAlign=middle;whiteSpace=wrap;rounded=0;" parent="1" vertex="1">
                    <mxGeometry x="577.5" y="2740" width="140" height="30" as="geometry"/>
                </mxCell>
            </root>
        </mxGraphModel>
    </diagram>
</mxfile>